# xmcd
#
# Track frame offsets:
#	150
#	17669
#	47199
#	79781
#	113747
#	151420
#	180808
#	220943
#	254860
#	289982
#	306239
#
# Disc length: 4415 seconds
#
# Revision: 1
# Processed by: cddbd v1.5.2PL0 Copyright (c) Steve Scherf et al.
# Submitted via: audiograbber 1.83.01
#
DISCID=97113d0b
DTITLE=Grateful Dead - 78-05-05A Thompson Arena, Dartmouth College, Hanover NH
DYEAR=1900
DGENRE=
TTITLE0=Tuning
TTITLE1=Promised Land
TTITLE2=Dire Wolf
TTITLE3=Cassidy
TTITLE4=Candyman
TTITLE5=El Paso
TTITLE6=They Love Each Other
TTITLE7=Passenger
TTITLE8=Brown Eyed Women
TTITLE9=Lazy Lightning
TTITLE10=Supplication
EXTD=
EXTT0=
EXTT1=
EXTT2=
EXTT3=
EXTT4=
EXTT5=
EXTT6=
EXTT7=
EXTT8=
EXTT9=
EXTT10=
PLAYORDER=
